<?xml version="1.0" encoding="UTF-8" standalone="no"?><svg xmlns="http://www.w3.org/2000/svg" xmlns:xlink="http://www.w3.org/1999/xlink" contentScriptType="application/ecmascript" contentStyleType="text/css" height="1112px" preserveAspectRatio="none" style="width:1122px;height:1112px;" version="1.1" viewBox="0 0 1122 1112" width="1122px" zoomAndPan="magnify"><defs><filter height="300%" id="ff1raf26yg055" width="300%" x="-1" y="-1"><feGaussianBlur result="blurOut" stdDeviation="2.0"/><feColorMatrix in="blurOut" result="blurOut2" type="matrix" values="0 0 0 0 0 0 0 0 0 0 0 0 0 0 0 0 0 0 .4 0"/><feOffset dx="4.0" dy="4.0" in="blurOut2" result="blurOut3"/><feBlend in="SourceGraphic" in2="blurOut3" mode="normal"/></filter></defs><g><!--entity basic--><polygon fill="#FEFECE" filter="url(#ff1raf26yg055)" points="706.5,8,706.5,44.4883,847.5,44.4883,847.5,18,837.5,8,706.5,8" style="stroke: #000000; stroke-width: 1.5;"/><path d="M837.5,8 L837.5,18 L847.5,18 " fill="#FEFECE" style="stroke: #000000; stroke-width: 1.5;"/><text fill="#000000" font-family="sans-serif" font-size="14" lengthAdjust="spacingAndGlyphs" textLength="121" x="716.5" y="31.5352">Java Fundamental</text><!--entity oop--><polygon fill="#FEFECE" filter="url(#ff1raf26yg055)" points="648.5,200,648.5,236.4883,905.5,236.4883,905.5,210,895.5,200,648.5,200" style="stroke: #000000; stroke-width: 1.5;"/><path d="M895.5,200 L895.5,210 L905.5,210 " fill="#FEFECE" style="stroke: #000000; stroke-width: 1.5;"/><text fill="#000000" font-family="sans-serif" font-size="14" lengthAdjust="spacingAndGlyphs" textLength="237" x="658.5" y="223.5352">Java Object Oriented Programming</text><!--entity lambda--><polygon fill="#FEFECE" filter="url(#ff1raf26yg055)" points="464.5,296,464.5,332.4883,569.5,332.4883,569.5,306,559.5,296,464.5,296" style="stroke: #000000; stroke-width: 1.5;"/><path d="M559.5,296 L559.5,306 L569.5,306 " fill="#FEFECE" style="stroke: #000000; stroke-width: 1.5;"/><text fill="#000000" font-family="sans-serif" font-size="14" lengthAdjust="spacingAndGlyphs" textLength="85" x="474.5" y="319.5352">Java Lambda</text><!--entity collection--><polygon fill="#FEFECE" filter="url(#ff1raf26yg055)" points="466,392,466,428.4883,586,428.4883,586,402,576,392,466,392" style="stroke: #000000; stroke-width: 1.5;"/><path d="M576,392 L576,402 L586,402 " fill="#FEFECE" style="stroke: #000000; stroke-width: 1.5;"/><text fill="#000000" font-family="sans-serif" font-size="14" lengthAdjust="spacingAndGlyphs" textLength="100" x="476" y="415.5352">Java Collection</text><!--entity stream--><polygon fill="#FEFECE" filter="url(#ff1raf26yg055)" points="213.5,680,213.5,716.4883,312.5,716.4883,312.5,690,302.5,680,213.5,680" style="stroke: #000000; stroke-width: 1.5;"/><path d="M302.5,680 L302.5,690 L312.5,690 " fill="#FEFECE" style="stroke: #000000; stroke-width: 1.5;"/><text fill="#000000" font-family="sans-serif" font-size="14" lengthAdjust="spacingAndGlyphs" textLength="79" x="223.5" y="703.5352">Java Stream</text><!--entity reflection--><polygon fill="#FEFECE" filter="url(#ff1raf26yg055)" points="712.5,392,712.5,428.4883,831.5,428.4883,831.5,402,821.5,392,712.5,392" style="stroke: #000000; stroke-width: 1.5;"/><path d="M821.5,392 L821.5,402 L831.5,402 " fill="#FEFECE" style="stroke: #000000; stroke-width: 1.5;"/><text fill="#000000" font-family="sans-serif" font-size="14" lengthAdjust="spacingAndGlyphs" textLength="99" x="722.5" y="415.5352">Java Reflection</text><!--entity jdbc--><polygon fill="#FEFECE" filter="url(#ff1raf26yg055)" points="449,488,449,524.4883,651,524.4883,651,498,641,488,449,488" style="stroke: #000000; stroke-width: 1.5;"/><path d="M641,488 L641,498 L651,498 " fill="#FEFECE" style="stroke: #000000; stroke-width: 1.5;"/><text fill="#000000" font-family="sans-serif" font-size="14" lengthAdjust="spacingAndGlyphs" textLength="182" x="459" y="511.5352">Java Database Connectivity</text><!--entity i18n--><polygon fill="#FEFECE" filter="url(#ff1raf26yg055)" points="867,392,867,428.4883,1053,428.4883,1053,402,1043,392,867,392" style="stroke: #000000; stroke-width: 1.5;"/><path d="M1043,392 L1043,402 L1053,402 " fill="#FEFECE" style="stroke: #000000; stroke-width: 1.5;"/><text fill="#000000" font-family="sans-serif" font-size="14" lengthAdjust="spacingAndGlyphs" textLength="166" x="877" y="415.5352">Java Internationalization</text><!--entity thread--><polygon fill="#FEFECE" filter="url(#ff1raf26yg055)" points="346,584,346,620.4883,446,620.4883,446,594,436,584,346,584" style="stroke: #000000; stroke-width: 1.5;"/><path d="M436,584 L436,594 L446,594 " fill="#FEFECE" style="stroke: #000000; stroke-width: 1.5;"/><text fill="#000000" font-family="sans-serif" font-size="14" lengthAdjust="spacingAndGlyphs" textLength="80" x="356" y="607.5352">Java Thread</text><!--entity concurrency--><polygon fill="#FEFECE" filter="url(#ff1raf26yg055)" points="347.5,680,347.5,716.4883,540.5,716.4883,540.5,690,530.5,680,347.5,680" style="stroke: #000000; stroke-width: 1.5;"/><path d="M530.5,680 L530.5,690 L540.5,690 " fill="#FEFECE" style="stroke: #000000; stroke-width: 1.5;"/><text fill="#000000" font-family="sans-serif" font-size="14" lengthAdjust="spacingAndGlyphs" textLength="173" x="357.5" y="703.5352">Java Concurrency Utilities</text><!--entity memory--><polygon fill="#FEFECE" filter="url(#ff1raf26yg055)" points="901.5,296,901.5,332.4883,1100.5,332.4883,1100.5,306,1090.5,296,901.5,296" style="stroke: #000000; stroke-width: 1.5;"/><path d="M1090.5,296 L1090.5,306 L1100.5,306 " fill="#FEFECE" style="stroke: #000000; stroke-width: 1.5;"/><text fill="#000000" font-family="sans-serif" font-size="14" lengthAdjust="spacingAndGlyphs" textLength="179" x="911.5" y="319.5352">Java Memory Management</text><!--entity beanvalidation--><polygon fill="#FEFECE" filter="url(#ff1raf26yg055)" points="686,488,686,524.4883,812,524.4883,812,498,802,488,686,488" style="stroke: #000000; stroke-width: 1.5;"/><path d="M802,488 L802,498 L812,498 " fill="#FEFECE" style="stroke: #000000; stroke-width: 1.5;"/><text fill="#000000" font-family="sans-serif" font-size="14" lengthAdjust="spacingAndGlyphs" textLength="106" x="696" y="511.5352">Bean Validation</text><!--entity jpa--><polygon fill="#FEFECE" filter="url(#ff1raf26yg055)" points="589,584,589,620.4883,743,620.4883,743,594,733,584,589,584" style="stroke: #000000; stroke-width: 1.5;"/><path d="M733,584 L733,594 L743,594 " fill="#FEFECE" style="stroke: #000000; stroke-width: 1.5;"/><text fill="#000000" font-family="sans-serif" font-size="14" lengthAdjust="spacingAndGlyphs" textLength="134" x="599" y="607.5352">Java Persistence API</text><!--entity springcore--><polygon fill="#FEFECE" filter="url(#ff1raf26yg055)" points="847,488,847,524.4883,949,524.4883,949,498,939,488,847,488" style="stroke: #000000; stroke-width: 1.5;"/><path d="M939,488 L939,498 L949,498 " fill="#FEFECE" style="stroke: #000000; stroke-width: 1.5;"/><text fill="#000000" font-family="sans-serif" font-size="14" lengthAdjust="spacingAndGlyphs" textLength="82" x="857" y="511.5352">Spring Core</text><!--entity springaop--><polygon fill="#FEFECE" filter="url(#ff1raf26yg055)" points="749.5,680,749.5,716.4883,1026.5,716.4883,1026.5,690,1016.5,680,749.5,680" style="stroke: #000000; stroke-width: 1.5;"/><path d="M1016.5,680 L1016.5,690 L1026.5,690 " fill="#FEFECE" style="stroke: #000000; stroke-width: 1.5;"/><text fill="#000000" font-family="sans-serif" font-size="14" lengthAdjust="spacingAndGlyphs" textLength="257" x="759.5" y="703.5352">Spring Aspect Oriented Programming</text><!--entity springdatajpa--><polygon fill="#FEFECE" filter="url(#ff1raf26yg055)" points="659,776,659,812.4883,785,812.4883,785,786,775,776,659,776" style="stroke: #000000; stroke-width: 1.5;"/><path d="M775,776 L775,786 L785,786 " fill="#FEFECE" style="stroke: #000000; stroke-width: 1.5;"/><text fill="#000000" font-family="sans-serif" font-size="14" lengthAdjust="spacingAndGlyphs" textLength="106" x="669" y="799.5352">Spring Data JPA</text><!--entity springdatamongodb--><polygon fill="#FEFECE" filter="url(#ff1raf26yg055)" points="645,872,645,908.4883,815,908.4883,815,882,805,872,645,872" style="stroke: #000000; stroke-width: 1.5;"/><path d="M805,872 L805,882 L815,882 " fill="#FEFECE" style="stroke: #000000; stroke-width: 1.5;"/><text fill="#000000" font-family="sans-serif" font-size="14" lengthAdjust="spacingAndGlyphs" textLength="150" x="655" y="895.5352">Spring Data MongoDB</text><!--entity springwebmvc--><polygon fill="#FEFECE" filter="url(#ff1raf26yg055)" points="480.5,872,480.5,908.4883,609.5,908.4883,609.5,882,599.5,872,480.5,872" style="stroke: #000000; stroke-width: 1.5;"/><path d="M599.5,872 L599.5,882 L609.5,882 " fill="#FEFECE" style="stroke: #000000; stroke-width: 1.5;"/><text fill="#000000" font-family="sans-serif" font-size="14" lengthAdjust="spacingAndGlyphs" textLength="109" x="490.5" y="895.5352">Spring WebMVC</text><!--entity springwebflux--><polygon fill="#FEFECE" filter="url(#ff1raf26yg055)" points="223,968,223,1004.4883,351,1004.4883,351,978,341,968,223,968" style="stroke: #000000; stroke-width: 1.5;"/><path d="M341,968 L341,978 L351,978 " fill="#FEFECE" style="stroke: #000000; stroke-width: 1.5;"/><text fill="#000000" font-family="sans-serif" font-size="14" lengthAdjust="spacingAndGlyphs" textLength="108" x="233" y="991.5352">Spring WebFlux</text><!--entity springkafka--><polygon fill="#FEFECE" filter="url(#ff1raf26yg055)" points="991.5,776,991.5,812.4883,1098.5,812.4883,1098.5,786,1088.5,776,991.5,776" style="stroke: #000000; stroke-width: 1.5;"/><path d="M1088.5,776 L1088.5,786 L1098.5,786 " fill="#FEFECE" style="stroke: #000000; stroke-width: 1.5;"/><text fill="#000000" font-family="sans-serif" font-size="14" lengthAdjust="spacingAndGlyphs" textLength="87" x="1001.5" y="799.5352">Spring Kafka</text><!--entity springcloudgateway--><polygon fill="#FEFECE" filter="url(#ff1raf26yg055)" points="169.5,1064,169.5,1100.4883,340.5,1100.4883,340.5,1074,330.5,1064,169.5,1064" style="stroke: #000000; stroke-width: 1.5;"/><path d="M330.5,1064 L330.5,1074 L340.5,1074 " fill="#FEFECE" style="stroke: #000000; stroke-width: 1.5;"/><text fill="#000000" font-family="sans-serif" font-size="14" lengthAdjust="spacingAndGlyphs" textLength="151" x="179.5" y="1087.5352">Spring Cloud Gateway</text><!--entity springconsul--><polygon fill="#FEFECE" filter="url(#ff1raf26yg055)" points="473,968,473,1004.4883,635,1004.4883,635,978,625,968,473,968" style="stroke: #000000; stroke-width: 1.5;"/><path d="M625,968 L625,978 L635,978 " fill="#FEFECE" style="stroke: #000000; stroke-width: 1.5;"/><text fill="#000000" font-family="sans-serif" font-size="14" lengthAdjust="spacingAndGlyphs" textLength="142" x="483" y="991.5352">Spring Cloud Consul</text><!--entity springvault--><polygon fill="#FEFECE" filter="url(#ff1raf26yg055)" points="670.5,968,670.5,1004.4883,819.5,1004.4883,819.5,978,809.5,968,670.5,968" style="stroke: #000000; stroke-width: 1.5;"/><path d="M809.5,968 L809.5,978 L819.5,978 " fill="#FEFECE" style="stroke: #000000; stroke-width: 1.5;"/><text fill="#000000" font-family="sans-serif" font-size="14" lengthAdjust="spacingAndGlyphs" textLength="129" x="680.5" y="991.5352">Spring Cloud Vault</text><!--entity springsecurity--><polygon fill="#FEFECE" filter="url(#ff1raf26yg055)" points="375.5,1064,375.5,1100.4883,498.5,1100.4883,498.5,1074,488.5,1064,375.5,1064" style="stroke: #000000; stroke-width: 1.5;"/><path d="M488.5,1064 L488.5,1074 L498.5,1074 " fill="#FEFECE" style="stroke: #000000; stroke-width: 1.5;"/><text fill="#000000" font-family="sans-serif" font-size="14" lengthAdjust="spacingAndGlyphs" textLength="103" x="385.5" y="1087.5352">Spring Security</text><!--entity springtask--><polygon fill="#FEFECE" filter="url(#ff1raf26yg055)" points="340.5,776,340.5,812.4883,623.5,812.4883,623.5,786,613.5,776,340.5,776" style="stroke: #000000; stroke-width: 1.5;"/><path d="M613.5,776 L613.5,786 L623.5,786 " fill="#FEFECE" style="stroke: #000000; stroke-width: 1.5;"/><text fill="#000000" font-family="sans-serif" font-size="14" lengthAdjust="spacingAndGlyphs" textLength="263" x="350.5" y="799.5352">Spring Task Execution and Scheduling</text><!--entity springrabbitmq--><polygon fill="#FEFECE" filter="url(#ff1raf26yg055)" points="820,776,820,812.4883,956,812.4883,956,786,946,776,820,776" style="stroke: #000000; stroke-width: 1.5;"/><path d="M946,776 L946,786 L956,786 " fill="#FEFECE" style="stroke: #000000; stroke-width: 1.5;"/><text fill="#000000" font-family="sans-serif" font-size="14" lengthAdjust="spacingAndGlyphs" textLength="116" x="830" y="799.5352">Spring RabbitMQ</text><!--entity springconfig--><polygon fill="#FEFECE" filter="url(#ff1raf26yg055)" points="778.5,584,778.5,620.4883,1017.5,620.4883,1017.5,594,1007.5,584,778.5,584" style="stroke: #000000; stroke-width: 1.5;"/><path d="M1007.5,584 L1007.5,594 L1017.5,594 " fill="#FEFECE" style="stroke: #000000; stroke-width: 1.5;"/><text fill="#000000" font-family="sans-serif" font-size="14" lengthAdjust="spacingAndGlyphs" textLength="219" x="788.5" y="607.5352">Spring Configuration Properties</text><!--entity springactuator--><polygon fill="#FEFECE" filter="url(#ff1raf26yg055)" points="6,1064,6,1100.4883,134,1100.4883,134,1074,124,1064,6,1064" style="stroke: #000000; stroke-width: 1.5;"/><path d="M124,1064 L124,1074 L134,1074 " fill="#FEFECE" style="stroke: #000000; stroke-width: 1.5;"/><text fill="#000000" font-family="sans-serif" font-size="14" lengthAdjust="spacingAndGlyphs" textLength="108" x="16" y="1087.5352">Spring Actuator</text><!--entity reactor--><polygon fill="#FEFECE" filter="url(#ff1raf26yg055)" points="225.5,872,225.5,908.4883,348.5,908.4883,348.5,882,338.5,872,225.5,872" style="stroke: #000000; stroke-width: 1.5;"/><path d="M338.5,872 L338.5,882 L348.5,882 " fill="#FEFECE" style="stroke: #000000; stroke-width: 1.5;"/><text fill="#000000" font-family="sans-serif" font-size="14" lengthAdjust="spacingAndGlyphs" textLength="103" x="235.5" y="895.5352">Project Reactor</text><!--entity junit--><polygon fill="#FEFECE" filter="url(#ff1raf26yg055)" points="625,392,625,428.4883,677,428.4883,677,402,667,392,625,392" style="stroke: #000000; stroke-width: 1.5;"/><path d="M667,392 L667,402 L677,402 " fill="#FEFECE" style="stroke: #000000; stroke-width: 1.5;"/><text fill="#000000" font-family="sans-serif" font-size="14" lengthAdjust="spacingAndGlyphs" textLength="32" x="635" y="415.5352">JUnit</text><!--entity maven--><polygon fill="#FEFECE" filter="url(#ff1raf26yg055)" points="604.5,296,604.5,332.4883,723.5,332.4883,723.5,306,713.5,296,604.5,296" style="stroke: #000000; stroke-width: 1.5;"/><path d="M713.5,296 L713.5,306 L723.5,306 " fill="#FEFECE" style="stroke: #000000; stroke-width: 1.5;"/><text fill="#000000" font-family="sans-serif" font-size="14" lengthAdjust="spacingAndGlyphs" textLength="99" x="614.5" y="319.5352">Apache Maven</text><!--entity ide--><polygon fill="#FEFECE" filter="url(#ff1raf26yg055)" points="639,104,639,140.4883,915,140.4883,915,114,905,104,639,104" style="stroke: #000000; stroke-width: 1.5;"/><path d="M905,104 L905,114 L915,114 " fill="#FEFECE" style="stroke: #000000; stroke-width: 1.5;"/><text fill="#000000" font-family="sans-serif" font-size="14" lengthAdjust="spacingAndGlyphs" textLength="256" x="649" y="127.5352">Integrated Development Environment</text><!--link basic to ide--><path d="M777,44.24 C777,59.48 777,81.81 777,98.46 " fill="none" id="basic-&gt;ide" style="stroke: #A80036; stroke-width: 1.0;"/><polygon fill="#A80036" points="777,103.87,781,94.87,777,98.87,773,94.87,777,103.87" style="stroke: #A80036; stroke-width: 1.0;"/><!--link ide to oop--><path d="M777,140.24 C777,155.48 777,177.81 777,194.46 " fill="none" id="ide-&gt;oop" style="stroke: #A80036; stroke-width: 1.0;"/><polygon fill="#A80036" points="777,199.87,781,190.87,777,194.87,773,190.87,777,199.87" style="stroke: #A80036; stroke-width: 1.0;"/><!--link oop to reflection--><path d="M776.55,236.2 C775.64,270.67 773.6,348.23 772.59,386.61 " fill="none" id="oop-&gt;reflection" style="stroke: #A80036; stroke-width: 1.0;"/><polygon fill="#A80036" points="772.45,391.98,776.68,383.0858,772.5785,386.9817,768.6827,382.8802,772.45,391.98" style="stroke: #A80036; stroke-width: 1.0;"/><!--link oop to lambda--><path d="M729.92,236.02 C684.5,252.44 615.92,277.24 568.93,294.22 " fill="none" id="oop-&gt;lambda" style="stroke: #A80036; stroke-width: 1.0;"/><polygon fill="#A80036" points="564.17,295.95,573.9939,296.6503,568.8719,294.2493,571.2728,289.1273,564.17,295.95" style="stroke: #A80036; stroke-width: 1.0;"/><!--link oop to maven--><path d="M756.54,236.02 C737.46,251.89 708.97,275.59 688.64,292.5 " fill="none" id="oop-&gt;maven" style="stroke: #A80036; stroke-width: 1.0;"/><polygon fill="#A80036" points="684.69,295.79,694.1657,293.1047,688.5323,292.5905,689.0465,286.957,684.69,295.79" style="stroke: #A80036; stroke-width: 1.0;"/><!--link maven to junit--><path d="M661.62,332.24 C659.49,347.61 656.37,370.2 654.06,386.89 " fill="none" id="maven-&gt;junit" style="stroke: #A80036; stroke-width: 1.0;"/><polygon fill="#A80036" points="653.37,391.87,658.5655,383.503,654.0551,386.9172,650.6409,382.4068,653.37,391.87" style="stroke: #A80036; stroke-width: 1.0;"/><!--link junit to springcore--><path d="M677.05,421.09 C682.95,423.37 689.19,425.77 695,428 C747.09,447.94 806.79,470.56 847.9,486.09 " fill="none" id="junit-&gt;springcore" style="stroke: #A80036; stroke-width: 1.0;"/><polygon fill="#A80036" points="852.82,487.95,845.823,481.0188,848.1448,486.1772,842.9865,488.499,852.82,487.95" style="stroke: #A80036; stroke-width: 1.0;"/><!--link junit to jdbc--><path d="M632.48,428.24 C615.53,444.01 590.43,467.37 572.38,484.17 " fill="none" id="junit-&gt;jdbc" style="stroke: #A80036; stroke-width: 1.0;"/><polygon fill="#A80036" points="568.41,487.87,577.725,484.6715,572.0719,484.4656,572.2779,478.8124,568.41,487.87" style="stroke: #A80036; stroke-width: 1.0;"/><!--link junit to beanvalidation--><path d="M668.97,428.24 C685.41,444.01 709.77,467.37 727.29,484.17 " fill="none" id="junit-&gt;beanvalidation" style="stroke: #A80036; stroke-width: 1.0;"/><polygon fill="#A80036" points="731.14,487.87,727.4011,478.7584,727.5268,484.4139,721.8713,484.5396,731.14,487.87" style="stroke: #A80036; stroke-width: 1.0;"/><!--link reflection to beanvalidation--><path d="M767.78,428.24 C764.02,443.61 758.49,466.2 754.41,482.89 " fill="none" id="reflection-&gt;beanvalidation" style="stroke: #A80036; stroke-width: 1.0;"/><polygon fill="#A80036" points="753.19,487.87,759.2103,480.0754,754.3758,483.0126,751.4385,478.1781,753.19,487.87" style="stroke: #A80036; stroke-width: 1.0;"/><!--link reflection to springcore--><path d="M794.82,428.02 C816.18,443.96 848.13,467.79 870.8,484.71 " fill="none" id="reflection-&gt;springcore" style="stroke: #A80036; stroke-width: 1.0;"/><polygon fill="#A80036" points="874.93,487.79,870.1153,479.1982,870.9249,484.7968,865.3263,485.6064,874.93,487.79" style="stroke: #A80036; stroke-width: 1.0;"/><!--link collection to thread--><path d="M496.76,428.07 C475.67,441.78 448.02,462.86 431,488 C412.06,515.99 403.01,554.68 398.96,578.76 " fill="none" id="collection-&gt;thread" style="stroke: #A80036; stroke-width: 1.0;"/><polygon fill="#A80036" points="398.12,583.96,403.5103,575.7172,398.9211,579.0246,395.6137,574.4354,398.12,583.96" style="stroke: #A80036; stroke-width: 1.0;"/><!--link oop to i18n--><path d="M793.2,236.34 C814.07,258.6 851.51,298.4 884,332 C902.53,351.17 923.88,372.76 939.23,388.19 " fill="none" id="oop-&gt;i18n" style="stroke: #A80036; stroke-width: 1.0;"/><polygon fill="#A80036" points="942.99,391.97,939.473,382.7705,939.4616,388.4273,933.8048,388.4159,942.99,391.97" style="stroke: #A80036; stroke-width: 1.0;"/><!--link i18n to beanvalidation--><path d="M921.79,428.02 C885.31,444.28 830.4,468.74 792.31,485.71 " fill="none" id="i18n-&gt;beanvalidation" style="stroke: #A80036; stroke-width: 1.0;"/><polygon fill="#A80036" points="787.28,487.95,797.1289,487.9557,791.8502,485.922,793.884,480.6433,787.28,487.95" style="stroke: #A80036; stroke-width: 1.0;"/><!--link i18n to springcore--><path d="M948.63,428.24 C938.4,443.74 923.34,466.59 912.3,483.32 " fill="none" id="i18n-&gt;springcore" style="stroke: #A80036; stroke-width: 1.0;"/><polygon fill="#A80036" points="909.3,487.87,917.5996,482.5674,912.057,483.6988,910.9256,478.1562,909.3,487.87" style="stroke: #A80036; stroke-width: 1.0;"/><!--link collection to beanvalidation--><path d="M566.38,428.02 C605.1,444.34 663.45,468.94 703.72,485.91 " fill="none" id="collection-&gt;beanvalidation" style="stroke: #A80036; stroke-width: 1.0;"/><polygon fill="#A80036" points="708.54,487.95,701.7975,480.7709,703.9318,486.0097,698.6931,488.144,708.54,487.95" style="stroke: #A80036; stroke-width: 1.0;"/><!--link collection to jdbc--><path d="M530.4,428.24 C534.33,443.61 540.09,466.2 544.36,482.89 " fill="none" id="collection-&gt;jdbc" style="stroke: #A80036; stroke-width: 1.0;"/><polygon fill="#A80036" points="545.63,487.87,547.2672,478.1582,544.3871,483.0269,539.5183,480.1468,545.63,487.87" style="stroke: #A80036; stroke-width: 1.0;"/><!--link lambda to collection--><path d="M518.65,332.24 C520.12,347.61 522.28,370.2 523.88,386.89 " fill="none" id="lambda-&gt;collection" style="stroke: #A80036; stroke-width: 1.0;"/><polygon fill="#A80036" points="524.36,391.87,527.4685,382.5246,523.8752,386.8936,519.5062,383.3003,524.36,391.87" style="stroke: #A80036; stroke-width: 1.0;"/><!--link thread to concurrency--><path d="M404.8,620.24 C412.72,635.74 424.38,658.59 432.93,675.32 " fill="none" id="thread-&gt;concurrency" style="stroke: #A80036; stroke-width: 1.0;"/><polygon fill="#A80036" points="435.25,679.87,434.7274,670.035,432.9797,675.4151,427.5996,673.6674,435.25,679.87" style="stroke: #A80036; stroke-width: 1.0;"/><!--link thread to stream--><path d="M371.91,620.02 C349.36,635.96 315.64,659.79 291.71,676.71 " fill="none" id="thread-&gt;stream" style="stroke: #A80036; stroke-width: 1.0;"/><polygon fill="#A80036" points="287.36,679.79,297.0189,677.8651,291.444,676.9055,292.4037,671.3306,287.36,679.79" style="stroke: #A80036; stroke-width: 1.0;"/><!--link jdbc to jpa--><path d="M571.01,524.02 C590.59,539.89 619.84,563.59 640.7,580.5 " fill="none" id="jdbc-&gt;jpa" style="stroke: #A80036; stroke-width: 1.0;"/><polygon fill="#A80036" points="644.76,583.79,640.2779,575.0201,640.8724,580.6457,635.2469,581.2402,644.76,583.79" style="stroke: #A80036; stroke-width: 1.0;"/><!--link beanvalidation to jpa--><path d="M733.78,524.24 C719.97,539.88 699.57,562.98 684.76,579.75 " fill="none" id="beanvalidation-&gt;jpa" style="stroke: #A80036; stroke-width: 1.0;"/><polygon fill="#A80036" points="681.13,583.87,690.0834,579.7668,684.4376,580.1204,684.0841,574.4746,681.13,583.87" style="stroke: #A80036; stroke-width: 1.0;"/><!--link springaop to springdatajpa--><path d="M857.94,716.02 C829.47,732.14 786.74,756.34 756.81,773.29 " fill="none" id="springaop-&gt;springdatajpa" style="stroke: #A80036; stroke-width: 1.0;"/><polygon fill="#A80036" points="752.12,775.95,761.9229,774.9995,756.4717,773.4878,757.9834,768.0367,752.12,775.95" style="stroke: #A80036; stroke-width: 1.0;"/><!--link jpa to springdatajpa--><path d="M671.07,620.2 C681.27,654.82 704.28,732.86 715.54,771.08 " fill="none" id="jpa-&gt;springdatajpa" style="stroke: #A80036; stroke-width: 1.0;"/><polygon fill="#A80036" points="716.98,775.98,718.2732,766.2164,715.5669,771.1839,710.5994,768.4775,716.98,775.98" style="stroke: #A80036; stroke-width: 1.0;"/><!--link concurrency to reactor--><path d="M403.07,716.07 C376.76,728.97 343.74,749.07 323,776 C302.24,802.96 293.28,842.2 289.54,866.63 " fill="none" id="concurrency-&gt;reactor" style="stroke: #A80036; stroke-width: 1.0;"/><polygon fill="#A80036" points="288.82,871.61,294.0627,863.2725,289.5331,866.6611,286.1445,862.1315,288.82,871.61" style="stroke: #A80036; stroke-width: 1.0;"/><!--link reactor to springwebflux--><path d="M287,908.24 C287,923.48 287,945.81 287,962.46 " fill="none" id="reactor-&gt;springwebflux" style="stroke: #A80036; stroke-width: 1.0;"/><polygon fill="#A80036" points="287,967.87,291,958.87,287,962.87,283,958.87,287,967.87" style="stroke: #A80036; stroke-width: 1.0;"/><!--link springwebmvc to springwebflux--><path d="M498.28,908.02 C453.21,924.44 385.16,949.24 338.54,966.22 " fill="none" id="springwebmvc-&gt;springwebflux" style="stroke: #A80036; stroke-width: 1.0;"/><polygon fill="#A80036" points="333.81,967.95,343.6358,968.6239,338.5073,966.2367,340.8945,961.1082,333.81,967.95" style="stroke: #A80036; stroke-width: 1.0;"/><!--link springaop to springtask--><path d="M814.48,716.02 C742.84,732.61 634.29,757.74 560.89,774.74 " fill="none" id="springaop-&gt;springtask" style="stroke: #A80036; stroke-width: 1.0;"/><polygon fill="#A80036" points="555.66,775.95,565.3306,777.8155,560.531,774.8215,563.525,770.022,555.66,775.95" style="stroke: #A80036; stroke-width: 1.0;"/><!--link concurrency to springtask--><path d="M450.97,716.24 C457.18,731.61 466.31,754.2 473.06,770.89 " fill="none" id="concurrency-&gt;springtask" style="stroke: #A80036; stroke-width: 1.0;"/><polygon fill="#A80036" points="475.07,775.87,475.4048,766.0268,473.1958,771.2346,467.9881,769.0256,475.07,775.87" style="stroke: #A80036; stroke-width: 1.0;"/><!--link springdatajpa to springdatamongodb--><path d="M723.47,812.24 C724.76,827.48 726.66,849.81 728.08,866.46 " fill="none" id="springdatajpa-&gt;springdatamongodb" style="stroke: #A80036; stroke-width: 1.0;"/><polygon fill="#A80036" points="728.54,871.87,731.781,862.5697,728.126,866.8872,723.8085,863.2321,728.54,871.87" style="stroke: #A80036; stroke-width: 1.0;"/><!--link springaop to springkafka--><path d="M916.43,716.02 C943.36,732.14 983.77,756.34 1012.08,773.29 " fill="none" id="springaop-&gt;springkafka" style="stroke: #A80036; stroke-width: 1.0;"/><polygon fill="#A80036" points="1016.52,775.95,1010.8408,767.9035,1012.2262,773.3881,1006.7417,774.7735,1016.52,775.95" style="stroke: #A80036; stroke-width: 1.0;"/><!--link springaop to springrabbitmq--><path d="M888,716.24 C888,731.48 888,753.81 888,770.46 " fill="none" id="springaop-&gt;springrabbitmq" style="stroke: #A80036; stroke-width: 1.0;"/><polygon fill="#A80036" points="888,775.87,892,766.87,888,770.87,884,766.87,888,775.87" style="stroke: #A80036; stroke-width: 1.0;"/><!--link springwebflux to springcloudgateway--><path d="M281.13,1004.24 C275.9,1019.61 268.21,1042.2 262.53,1058.89 " fill="none" id="springwebflux-&gt;springcloudgateway" style="stroke: #A80036; stroke-width: 1.0;"/><polygon fill="#A80036" points="260.83,1063.87,267.5232,1056.645,262.4454,1059.1381,259.9522,1054.0603,260.83,1063.87" style="stroke: #A80036; stroke-width: 1.0;"/><!--link springwebflux to springsecurity--><path d="M314.16,1004.02 C339.89,1020.14 378.5,1044.34 405.55,1061.29 " fill="none" id="springwebflux-&gt;springsecurity" style="stroke: #A80036; stroke-width: 1.0;"/><polygon fill="#A80036" points="409.79,1063.95,404.2978,1055.7747,405.5564,1061.2897,400.0414,1062.5484,409.79,1063.95" style="stroke: #A80036; stroke-width: 1.0;"/><!--link springwebmvc to springsecurity--><path d="M515.84,908.05 C495.4,921.62 469.27,942.52 455,968 C439.12,996.36 436.18,1034.63 436.14,1058.56 " fill="none" id="springwebmvc-&gt;springsecurity" style="stroke: #A80036; stroke-width: 1.0;"/><polygon fill="#A80036" points="436.17,1063.73,440.1185,1054.7073,436.1414,1058.7301,432.1186,1054.753,436.17,1063.73" style="stroke: #A80036; stroke-width: 1.0;"/><!--link springwebmvc to springconsul--><path d="M546.65,908.24 C548.12,923.61 550.28,946.2 551.88,962.89 " fill="none" id="springwebmvc-&gt;springconsul" style="stroke: #A80036; stroke-width: 1.0;"/><polygon fill="#A80036" points="552.36,967.87,555.4685,958.5246,551.8752,962.8936,547.5062,959.3003,552.36,967.87" style="stroke: #A80036; stroke-width: 1.0;"/><!--link springwebmvc to springvault--><path d="M581.22,908.02 C615.8,924.28 667.85,948.74 703.95,965.71 " fill="none" id="springwebmvc-&gt;springvault" style="stroke: #A80036; stroke-width: 1.0;"/><polygon fill="#A80036" points="708.71,967.95,702.2664,960.5015,704.1849,965.8231,698.8633,967.7416,708.71,967.95" style="stroke: #A80036; stroke-width: 1.0;"/><!--link oop to memory--><path d="M817.56,236.02 C856.45,252.34 915.06,276.94 955.52,293.91 " fill="none" id="oop-&gt;memory" style="stroke: #A80036; stroke-width: 1.0;"/><polygon fill="#A80036" points="960.36,295.95,953.6255,288.7635,955.754,294.0046,950.5128,296.1331,960.36,295.95" style="stroke: #A80036; stroke-width: 1.0;"/><!--link springcore to springconfig--><path d="M898,524.24 C898,539.48 898,561.81 898,578.46 " fill="none" id="springcore-&gt;springconfig" style="stroke: #A80036; stroke-width: 1.0;"/><polygon fill="#A80036" points="898,583.87,902,574.87,898,578.87,894,574.87,898,583.87" style="stroke: #A80036; stroke-width: 1.0;"/><!--link springconfig to springaop--><path d="M896.17,620.24 C894.53,635.61 892.13,658.2 890.35,674.89 " fill="none" id="springconfig-&gt;springaop" style="stroke: #A80036; stroke-width: 1.0;"/><polygon fill="#A80036" points="889.82,679.87,894.7491,671.3433,890.3486,674.898,886.794,670.4975,889.82,679.87" style="stroke: #A80036; stroke-width: 1.0;"/><!--link springdatajpa to springwebmvc--><path d="M689.95,812.02 C659.47,828.21 613.66,852.54 581.72,869.5 " fill="none" id="springdatajpa-&gt;springwebmvc" style="stroke: #A80036; stroke-width: 1.0;"/><polygon fill="#A80036" points="577.11,871.95,586.9358,871.2771,581.5296,869.6119,583.1948,864.2057,577.11,871.95" style="stroke: #A80036; stroke-width: 1.0;"/><!--link springwebflux to springactuator--><path d="M247.7,1004.02 C210.03,1020.34 153.25,1044.94 114.06,1061.91 " fill="none" id="springwebflux-&gt;springactuator" style="stroke: #A80036; stroke-width: 1.0;"/><polygon fill="#A80036" points="109.37,1063.95,119.2184,1064.0443,113.9583,1061.9632,116.0395,1056.7031,109.37,1063.95" style="stroke: #A80036; stroke-width: 1.0;"/><!--
@startuml

file "Java Fundamental" as basic
file "Java Object Oriented Programming" as oop
file "Java Lambda" as lambda
file "Java Collection" as collection
file "Java Stream" as stream 
file "Java Reflection" as reflection
file "Java Database Connectivity" as jdbc
file "Java Internationalization" as i18n
file "Java Thread" as thread
file "Java Concurrency Utilities" as concurrency
file "Java Memory Management" as memory 

file "Bean Validation" as beanvalidation
file "Java Persistence API" as jpa

file "Spring Core" as springcore
file "Spring Aspect Oriented Programming" as springaop
file "Spring Data JPA" as springdatajpa
file "Spring Data MongoDB" as springdatamongodb
file "Spring WebMVC" as springwebmvc
file "Spring WebFlux" as springwebflux
file "Spring Kafka" as springkafka
file "Spring Cloud Gateway" as springcloudgateway
file "Spring Cloud Consul" as springconsul
file "Spring Cloud Vault" as springvault
file "Spring Security" as springsecurity
file "Spring Task Execution and Scheduling" as springtask
file "Spring RabbitMQ" as springrabbitmq
file "Spring Configuration Properties" as springconfig
file "Spring Actuator" as springactuator

file "Project Reactor" as reactor 
file "JUnit" as junit 
file "Apache Maven" as maven 
file "Integrated Development Environment" as ide 

basic - -> ide 
ide - -> oop 
oop - -> reflection
oop - -> lambda
oop - -> maven
maven - -> junit
junit - -> springcore
junit - -> jdbc
junit - -> beanvalidation
reflection - -> beanvalidation
reflection - -> springcore 
collection - -> thread 
oop - -> i18n 
i18n - -> beanvalidation
i18n - -> springcore
collection - -> beanvalidation 
collection - -> jdbc 
lambda - -> collection
thread - -> concurrency
thread - -> stream
jdbc - -> jpa 
beanvalidation - -> jpa 
springaop - -> springdatajpa
jpa - -> springdatajpa
concurrency - -> reactor
reactor - -> springwebflux
springwebmvc - -> springwebflux
springaop - -> springtask
concurrency - -> springtask
springdatajpa - -> springdatamongodb
springaop - -> springkafka
springaop - -> springrabbitmq
springwebflux - -> springcloudgateway
springwebflux - -> springsecurity
springwebmvc - -> springsecurity
springwebmvc - -> springconsul
springwebmvc - -> springvault
oop - -> memory 
springcore - -> springconfig
springconfig - -> springaop
springdatajpa - -> springwebmvc
springwebflux - -> springactuator

@enduml

PlantUML version 1.2019.09(Mon Aug 26 23:19:51 WIB 2019)
(GPL source distribution)
Java Runtime: Java(TM) SE Runtime Environment
JVM: Java HotSpot(TM) 64-Bit Server VM
Java Version: 1.8.0_241-b07
Operating System: Mac OS X
OS Version: 10.15.3
Default Encoding: UTF-8
Language: en
Country: ID
--></g></svg>